<?xml version="1.0" standalone="no"?>
<!DOCTYPE svg PUBLIC "-//W3C//DTD SVG 20010904//EN"
 "http://www.w3.org/TR/2001/REC-SVG-20010904/DTD/svg10.dtd">
<svg version="1.0" xmlns="http://www.w3.org/2000/svg"
 width="1081.000000pt" height="1081.000000pt" viewBox="0 0 1081.000000 1081.000000"
 preserveAspectRatio="xMidYMid meet">
<metadata>
Created by potrace 1.11, written by Peter Selinger 2001-2013
</metadata>
<g transform="translate(0.000000,1081.000000) scale(0.100000,-0.100000)"
fill="#000000" stroke="none">
<path d="M0 5410 l0 -5400 5400 0 5400 0 0 5400 0 5400 -5400 0 -5400 0 0
-5400z m4323 1215 c42 -58 77 -110 77 -115 0 -13 -808 -2412 -815 -2418 -3 -3
-117 26 -253 65 -179 51 -246 74 -244 84 2 8 161 464 354 1013 193 550 353
1008 356 1018 4 17 -22 18 -587 18 l-591 0 -5 23 c-2 12 -16 99 -30 192 -14
94 -28 182 -31 198 l-6 27 849 0 848 0 78 -105z m1524 -240 c170 -32 290 -86
420 -190 211 -166 334 -413 364 -725 62 -652 -328 -1152 -934 -1196 -222 -16
-470 48 -632 164 -215 153 -338 344 -401 627 -21 97 -29 330 -15 438 62 465
371 803 804 882 100 18 298 18 394 0z m1973 -18 c91 -24 286 -99 301 -114 7
-7 -103 -288 -120 -305 -3 -4 -49 11 -101 33 -148 64 -234 82 -359 77 -123 -6
-193 -30 -241 -84 -36 -42 -44 -69 -38 -139 8 -99 54 -138 404 -343 268 -157
331 -199 412 -276 124 -118 172 -223 172 -374 -1 -160 -37 -249 -145 -357
-138 -139 -330 -205 -595 -206 -170 -1 -404 57 -571 141 l-57 29 44 152 c24
84 46 154 49 157 2 3 35 -9 72 -26 227 -102 448 -133 625 -87 139 37 211 155
160 261 -28 57 -85 101 -310 235 -373 223 -519 339 -604 480 -47 78 -58 114
-65 209 -10 149 36 272 145 380 92 92 234 159 387 183 17 3 100 4 185 2 129
-2 171 -7 250 -28z"/>
<path d="M5500 6054 c-107 -29 -224 -110 -293 -203 -50 -68 -110 -189 -130
-266 -66 -243 -21 -568 102 -749 121 -179 358 -269 578 -222 169 36 306 143
382 298 71 143 85 214 85 428 0 210 -14 280 -80 419 -67 138 -210 258 -355
296 -69 19 -218 18 -289 -1z"/>
</g>
</svg>
